<svg fill="none" viewBox="0 0 82 30" xmlns="http://www.w3.org/2000/svg">
<title>GSAP</title>
<path d="M23.81 14.012v.013l-1.075 4.666c-.058.264-.322.457-.626.457H20.81a.218.218 0 0 0-.208.156c-1.198 4.064-2.82 6.857-4.962 8.534-1.822 1.428-4.068 2.094-7.069 2.094-2.696 0-4.514-.867-6.056-2.579-2.038-2.262-2.88-5.966-2.37-10.428C1.065 8.548 5.41.095 13.776.095c2.545-.022 4.543.763 5.933 2.33 1.47 1.658 2.216 4.154 2.22 7.422a.55.55 0 0 1-.549.536h-6.13a.42.42 0 0 1-.407-.41c-.05-2.26-.72-3.36-2.052-3.36-2.35 0-3.736 3.19-4.471 4.958-1.027 2.47-1.55 5.153-1.447 7.825.049 1.244.249 2.993 1.43 3.718 1.047.642 2.541.216 3.446-.495.904-.712 1.632-1.943 1.938-3.066.043-.156.046-.277.005-.331-.043-.056-.162-.069-.253-.069h-1.574a.572.572 0 0 1-.438-.202.42.42 0 0 1-.087-.362l1.076-4.674c.053-.239.27-.42.537-.452v-.012h10.33c.024 0 .049 0 .072.005.268.035.457.284.452.556h.002Z" fill="#FFFCE1"></path>
<g fill="#bbbaa6" fill-rule="nonzero" id="webflow">
<path d="M5.835 44.642c-.51 0-.965-.117-1.365-.353a2.366 2.366 0 0 1-.918-.964l-.106 1.188H2.67v-8.824h.976v3.565c.236-.345.543-.618.924-.818.38-.2.802-.3 1.265-.3.541 0 1.025.136 1.453.406.427.271.758.651.994 1.141.235.491.353 1.049.353 1.677 0 .635-.118 1.202-.353 1.7a2.772 2.772 0 0 1-.994 1.165 2.608 2.608 0 0 1-1.453.417Zm-.153-.847c.376 0 .711-.102 1.006-.306.294-.204.523-.492.688-.864.164-.373.247-.795.247-1.265a2.95 2.95 0 0 0-.247-1.235 1.99 1.99 0 0 0-.688-.842 1.77 1.77 0 0 0-1.018-.3c-.392 0-.741.098-1.047.295-.306.196-.545.47-.718.823a2.733 2.733 0 0 0-.259 1.212c0 .478.087.906.259 1.282.173.377.414.671.724.883.309.211.66.317 1.053.317ZM9.435 46.866v-.824h1c.306 0 .537-.049.694-.147a.89.89 0 0 0 .353-.453l.341-.929h-.235l-2.471-6.236h1.047l2.024 5.259 1.953-5.259h1l-2.8 7.542a1.495 1.495 0 0 1-.659.782c-.306.177-.722.265-1.247.265h-1ZM21.694 44.513h-1.106l-2.33-8.236h1.024l1.906 6.754 1.906-6.754h.964l1.93 6.777 1.906-6.777h1.023l-2.329 8.236h-1.106l-1.906-6.706-1.882 6.706ZM32.4 44.642c-.604 0-1.14-.137-1.606-.411a2.802 2.802 0 0 1-1.083-1.148c-.254-.49-.382-1.045-.382-1.664 0-.683.133-1.273.4-1.771a2.752 2.752 0 0 1 1.077-1.129 2.948 2.948 0 0 1 1.476-.383c.863 0 1.551.279 2.065.836.514.556.778 1.329.794 2.317v.271h-4.835c.031.674.233 1.216.605 1.623.373.408.869.612 1.489.612.439 0 .811-.108 1.117-.323.306-.216.522-.524.647-.924h.953c-.141.643-.453 1.153-.935 1.53-.482.376-1.076.564-1.782.564Zm1.717-3.894c-.086-.549-.29-.98-.611-1.294-.322-.314-.73-.471-1.224-.471s-.912.155-1.253.465c-.341.31-.563.743-.665 1.3h3.753ZM39.623 44.642c-.509 0-.964-.117-1.364-.353a2.366 2.366 0 0 1-.918-.964l-.106 1.188h-.776v-8.824h.976v3.565a2.51 2.51 0 0 1 .924-.818c.38-.2.802-.3 1.264-.3a2.66 2.66 0 0 1 1.453.406c.428.271.759.651.994 1.141.236.491.353 1.049.353 1.677 0 .635-.117 1.202-.353 1.7a2.758 2.758 0 0 1-.994 1.165 2.603 2.603 0 0 1-1.453.417Zm-.153-.847c.377 0 .712-.102 1.006-.306.294-.204.524-.492.689-.864.164-.373.247-.795.247-1.265a2.95 2.95 0 0 0-.247-1.235 1.991 1.991 0 0 0-.689-.842c-.294-.2-.633-.3-1.017-.3-.393 0-.742.098-1.047.295-.306.196-.546.47-.718.823a2.72 2.72 0 0 0-.259 1.212c0 .478.086.906.259 1.282a2.1 2.1 0 0 0 .723.883c.31.211.661.317 1.053.317ZM44.235 44.513v-5.412h-1.153v-.824h1.153v-.87c0-.557.151-.982.453-1.277.302-.294.743-.441 1.324-.441H47.4v.824h-1.388c-.259 0-.457.076-.594.229-.138.153-.206.375-.206.665v.87h2.023v.824h-2.023v5.412h-.977ZM48.329 35.689h.976v8.824h-.976zM53.682 44.642c-.651 0-1.206-.143-1.664-.429a2.736 2.736 0 0 1-1.042-1.177c-.235-.498-.352-1.064-.352-1.7 0-.674.135-1.253.405-1.735a2.719 2.719 0 0 1 1.1-1.094 3.248 3.248 0 0 1 1.553-.371c.644 0 1.195.141 1.653.424.459.282.808.667 1.047 1.153.24.486.359 1.027.359 1.623 0 .698-.131 1.296-.394 1.795a2.679 2.679 0 0 1-1.088 1.129c-.463.255-.988.382-1.577.382Zm0-.847c.432 0 .802-.11 1.112-.329.31-.22.545-.516.706-.888.161-.373.241-.787.241-1.242 0-.706-.188-1.274-.564-1.706-.377-.431-.875-.647-1.495-.647-.619 0-1.117.216-1.494.647-.376.432-.564 1-.564 1.706 0 .518.092.961.276 1.33.184.368.431.649.741.841.31.192.657.288 1.041.288ZM60.306 44.513h-1.082l-1.847-6.236h1l1.435 5.024 1.388-5.024h.847l1.388 5.001 1.424-5.001h1l-1.847 6.236h-1.071l-1.317-4.753-1.318 4.753Z"></path>
</g>
</svg>