<svg xmlns="http://www.w3.org/2000/svg" width="48" height="48" viewBox="0 0 48 48" fill="none">
    <circle cx="24" cy="24" r="24" fill="#fff"/>
    <path fill="#fff" d="M24 12a12 12 0 0 0-3.8 23.4c.6.1.8-.2.8-.5v-1.8c-3.3.7-4-1.6-4-1.6-.6-1.6-1.5-2-1.5-2-1.2-.8.1-.8.1-.8 1.3.1 2 1.4 2 1.4 1.2 2 3.1 1.4 3.8 1 .1-.9.5-1.4.9-1.7-2.7-.3-5.6-1.3-5.6-6a4.6 4.6 0 0 1 1.2-3.1c-.1-.3-.5-1.6.1-3.3 0 0 1-.3 3.3 1.2a11.4 11.4 0 0 1 6 0c2.3-1.5 3.3-1.2 3.3-1.2.6 1.7.2 3 .1 3.3a4.6 4.6 0 0 1 1.2 3.1c0 4.7-2.9 5.7-5.6 6 .5.4 1 1.2 1 2.4v3.6c0 .3.2.6.8.5A12 12 0 0 0 24 12Z"/>
  </svg>